<?xml version="1.0" encoding="UTF-8"?><svg id="Capa_1" xmlns="http://www.w3.org/2000/svg" viewBox="0 0 646.01 648"><defs><style>.cls-1{fill:#6d22ff;}</style></defs><path class="cls-1" d="M646.01,648v-.99h-25.48c8.41,.65,16.9,.99,25.48,.99Z"/><path class="cls-1" d="M620.53,.99h25.48V0c-8.58,0-17.07,.34-25.48,.99Z"/><path class="cls-1" d="M322.01,298.52V.99H24.48C183.11,13.33,309.67,139.9,322.01,298.52Z"/><path class="cls-1" d="M322.51,341.86c-.14,2.55-.3,5.09-.5,7.62v297.53h298.52c-161.15-12.54-289.21-142.97-298.02-305.15Z"/><path class="cls-1" d="M322.51,306.14c.32,5.91,.5,11.87,.5,17.86h323.01V.99h-25.48c-161.15,12.54-289.21,142.97-298.02,305.15Z"/><path class="cls-1" d="M322.01,349.48c.2-2.53,.36-5.07,.5-7.62-.32-5.91-.5-11.87-.5-17.86v25.48Z"/><path class="cls-1" d="M322.01,349.48v-25.48H0v323.01H24.48c158.62-12.34,285.19-138.91,297.53-297.53Z"/><path class="cls-1" d="M322.01,324c0-5.99,.17-11.95,.5-17.86-.14-2.55-.3-5.09-.5-7.62v25.48Z"/><path class="cls-1" d="M322.51,341.86c.32-5.91,.5-11.87,.5-17.86h-.99c0,5.99,.17,11.95,.5,17.86Z"/><path class="cls-1" d="M323.01,324c0-5.99-.17-11.95-.5-17.86-.32,5.91-.5,11.87-.5,17.86h.99Z"/></svg>